<svg xmlns="http://www.w3.org/2000/svg" width="22" height="35" viewBox="0 0 22 35" shape-rendering="crispEdges"><rect x="7" y="0" width="8" height="1" fill="#7d8593"/><rect x="5" y="1" width="1" height="1" fill="#7d8593"/><rect x="6" y="1" width="10" height="1" fill="#626977"/><rect x="16" y="1" width="1" height="1" fill="#7d8593"/><rect x="4" y="2" width="1" height="1" fill="#7d8593"/><rect x="5" y="2" width="2" height="1" fill="#626977"/><rect x="7" y="2" width="8" height="6" fill="#2f343c"/><rect x="15" y="2" width="2" height="1" fill="#626977"/><rect x="17" y="2" width="1" height="1" fill="#7d8593"/><rect x="3" y="3" width="1" height="1" fill="#7d8593"/><rect x="4" y="3" width="1" height="1" fill="#626977"/><rect x="5" y="3" width="2" height="6" fill="#2f343c"/><rect x="15" y="3" width="2" height="5" fill="#2f343c"/><rect x="17" y="3" width="1" height="1" fill="#626977"/><rect x="18" y="3" width="1" height="1" fill="#7d8593"/><rect x="2" y="4" width="1" height="2" fill="#7d8593"/><rect x="3" y="4" width="1" height="2" fill="#626977"/><rect x="4" y="4" width="1" height="5" fill="#2f343c"/><rect x="17" y="4" width="1" height="3" fill="#2f343c"/><rect x="18" y="4" width="1" height="2" fill="#626977"/><rect x="19" y="4" width="1" height="2" fill="#7d8593"/><rect x="1" y="6" width="1" height="3" fill="#7d8593"/><rect x="2" y="6" width="1" height="3" fill="#626977"/><rect x="3" y="6" width="1" height="3" fill="#2f343c"/><rect x="18" y="6" width="1" height="1" fill="#2f343c"/><rect x="19" y="6" width="1" height="3" fill="#626977"/><rect x="20" y="6" width="1" height="3" fill="#7d8593"/><rect x="17" y="7" width="2" height="2" fill="#1f232a"/><rect x="7" y="8" width="7" height="1" fill="#2f343c"/><rect x="14" y="8" width="3" height="1" fill="#1f232a"/><rect x="2" y="9" width="1" height="2" fill="#7d8593"/><rect x="3" y="9" width="16" height="1" fill="#626977"/><rect x="19" y="9" width="1" height="2" fill="#7d8593"/><rect x="3" y="10" width="16" height="1" fill="#454b56"/><rect x="3" y="11" width="1" height="1" fill="#7d8593"/><rect x="4" y="11" width="11" height="1" fill="#454b56"/><rect x="15" y="11" width="3" height="1" fill="#1f232a"/><rect x="18" y="11" width="1" height="1" fill="#7d8593"/><rect x="4" y="12" width="1" height="1" fill="#7d8593"/><rect x="5" y="12" width="8" height="1" fill="#454b56"/><rect x="13" y="12" width="4" height="1" fill="#1f232a"/><rect x="17" y="12" width="1" height="1" fill="#7d8593"/><rect x="5" y="13" width="1" height="1" fill="#7d8593"/><rect x="6" y="13" width="4" height="1" fill="#454b56"/><rect x="10" y="13" width="6" height="1" fill="#1f232a"/><rect x="16" y="13" width="1" height="2" fill="#7d8593"/><rect x="7" y="14" width="9" height="1" fill="#7d8593"/><rect x="17" y="14" width="1" height="5" fill="#7d8593"/><rect x="9" y="15" width="1" height="4" fill="#7d8593"/><rect x="10" y="15" width="2" height="2" fill="#2f343c"/><rect x="12" y="15" width="1" height="3" fill="#7d8593"/><rect x="15" y="15" width="1" height="2" fill="#7d8593"/><rect x="16" y="15" width="1" height="2" fill="#f0c09a"/><rect x="10" y="17" width="2" height="1" fill="#7d8593"/><rect x="13" y="17" width="2" height="1" fill="#7d8593"/><rect x="15" y="17" width="1" height="4" fill="#f0c09a"/><rect x="16" y="17" width="1" height="2" fill="#d19669"/><rect x="10" y="18" width="4" height="3" fill="#f0c09a"/><rect x="14" y="18" width="1" height="2" fill="#7d8593"/><rect x="6" y="19" width="1" height="1" fill="#7d8593"/><rect x="7" y="19" width="3" height="2" fill="#f0c09a"/><rect x="16" y="19" width="1" height="10" fill="#7d8593"/><rect x="5" y="20" width="1" height="1" fill="#7d8593"/><rect x="6" y="20" width="1" height="1" fill="#f0c09a"/><rect x="14" y="20" width="1" height="1" fill="#f0c09a"/><rect x="4" y="21" width="1" height="3" fill="#7d8593"/><rect x="5" y="21" width="11" height="1" fill="#d19669"/><rect x="5" y="22" width="9" height="1" fill="#8f5940"/><rect x="14" y="22" width="2" height="1" fill="#d19669"/><rect x="5" y="23" width="11" height="1" fill="#f0c09a"/><rect x="3" y="24" width="1" height="2" fill="#7d8593"/><rect x="4" y="24" width="12" height="1" fill="#d19669"/><rect x="4" y="25" width="10" height="1" fill="#8f5940"/><rect x="14" y="25" width="2" height="1" fill="#d19669"/><rect x="5" y="26" width="1" height="1" fill="#7d8593"/><rect x="6" y="26" width="10" height="1" fill="#f0c09a"/><rect x="4" y="27" width="1" height="2" fill="#7d8593"/><rect x="5" y="27" width="11" height="1" fill="#d19669"/><rect x="5" y="28" width="9" height="1" fill="#8f5940"/><rect x="14" y="28" width="2" height="1" fill="#d19669"/><rect x="7" y="29" width="1" height="1" fill="#7d8593"/><rect x="8" y="29" width="7" height="1" fill="#f0c09a"/><rect x="15" y="29" width="1" height="2" fill="#7d8593"/><rect x="6" y="30" width="1" height="1" fill="#7d8593"/><rect x="7" y="30" width="8" height="1" fill="#d19669"/><rect x="8" y="31" width="1" height="1" fill="#7d8593"/><rect x="9" y="31" width="3" height="1" fill="#8f5940"/><rect x="12" y="31" width="2" height="1" fill="#d19669"/><rect x="14" y="31" width="1" height="1" fill="#7d8593"/><rect x="9" y="32" width="1" height="3" fill="#7d8593"/><rect x="10" y="32" width="1" height="1" fill="#8f5940"/><rect x="11" y="32" width="2" height="1" fill="#d19669"/><rect x="13" y="32" width="1" height="2" fill="#7d8593"/><rect x="10" y="33" width="3" height="2" fill="#7d8593"/></svg>
